<svg xmlns="http://www.w3.org/2000/svg" viewBox="0 49.4 512 399.4"
      >
        <g fill="none" fillRule="evenodd">
          <g fillRule="nonzero">
            <path
              fill="#4285f4"
              d="M35 449h81V251L0 164v250c0 19 16 35 35 35z"
            />
            <path
              fill="#34a853"
              d="M396 449h81c19 0 35-16 35-35V164l-116 87z"
            />
            <path
              fill="#fbbc04"
              d="M396 100v151l116-87v-47c0-43-49-68-84-42z"
            />
          </g>
          <path fill="#ea4335" d="M116 251V100l140 104 140-104v151L256 356z" />
          <path
            fill="#c5221f"
            fillRule="nonzero"
            d="M0 117v47l116 87V100L84 75C49 49 0 74 0 117z"
          />
        </g>
      </svg>